<?xml version="1.0" ?><svg id="Icons" viewBox="0 0 128 128" xmlns="http://www.w3.org/2000/svg" xmlns:xlink="http://www.w3.org/1999/xlink"><defs><style>.cls-1{fill:url(#New_Gradient_Swatch_1);}.cls-2{fill:#0c3b79;}</style><linearGradient gradientUnits="userSpaceOnUse" id="New_Gradient_Swatch_1" x1="12" x2="116" y1="64" y2="64"><stop offset="0" stop-color="#67a3ff"/><stop offset="1" stop-color="#418cff"/></linearGradient></defs><rect class="cls-1" height="104" rx="17.33" width="104" x="12" y="12"/><path class="cls-2" d="M54.91,84.29h-.14a5.73,5.73,0,0,1-4.15-2L41.3,71.73A6.41,6.41,0,0,1,41.61,63a5.65,5.65,0,0,1,8.27.32l5.25,6L78.32,45.46a5.66,5.66,0,0,1,8.29.11,6.44,6.44,0,0,1-.11,8.74L59,82.54A5.71,5.71,0,0,1,54.91,84.29Z"/></svg>