<?xml version="1.0" encoding="iso-8859-1"?>
<!-- Generator: Adobe Illustrator 19.0.0, SVG Export Plug-In . SVG Version: 6.00 Build 0)  -->
<svg version="1.1" id="Capa_1" xmlns="http://www.w3.org/2000/svg" xmlns:xlink="http://www.w3.org/1999/xlink" x="0px" y="0px"
	 viewBox="0 0 384 384" style="enable-background:new 0 0 384 384;" xml:space="preserve">
<g>
	<g>
		<g>
			<path d="M341.333,192H384C384,85.973,298.027,0,192,0v42.667C274.453,42.667,341.333,109.547,341.333,192z"/>
			<path d="M362.667,266.667c-26.56,0-52.16-4.267-76.16-12.16c-7.36-2.347-15.787-0.64-21.653,5.227l-46.933,47.04
				c-60.48-30.72-109.76-80.107-140.587-140.48l46.933-47.04c5.867-5.867,7.573-14.293,5.227-21.653
				c-7.893-24-12.16-49.707-12.16-76.267C117.333,9.493,107.84,0,96,0H21.333C9.493,0,0,9.493,0,21.333
				C0,221.653,162.347,384,362.667,384c11.84,0,21.333-9.493,21.333-21.333V288C384,276.16,374.507,266.667,362.667,266.667z"/>
			<path d="M256,192h42.667c0-58.88-47.787-106.667-106.667-106.667V128C227.307,128,256,156.693,256,192z"/>
		</g>
	</g>
</g>
<g>
</g>
<g>
</g>
<g>
</g>
<g>
</g>
<g>
</g>
<g>
</g>
<g>
</g>
<g>
</g>
<g>
</g>
<g>
</g>
<g>
</g>
<g>
</g>
<g>
</g>
<g>
</g>
<g>
</g>
</svg>
