<svg height="512" viewBox="0 0 512 512" width="512" xmlns="http://www.w3.org/2000/svg"><g id="filled_outline" data-name="filled outline"><path d="m216 262h80v91h-80z" fill="#fdc9a6"/><path d="m296 262v11.97a64.036 64.036 0 0 1 -80 0v-11.97z" fill="#f6bb92"/><path d="m344 176h-176v-55.951a61.541 61.541 0 0 1 46.614-59.7 61.546 61.546 0 0 1 34.386 1.318l7 2.333 7-2.333a61.546 61.546 0 0 1 34.386-1.321 61.541 61.541 0 0 1 46.614 59.703z" fill="#683b0d"/><path d="m256 280a64 64 0 0 1 -64-64v-64h32v-8.631a12 12 0 0 1 14.91-11.641l14.18 3.544a11.99 11.99 0 0 0 5.82 0l14.18-3.544a12 12 0 0 1 14.91 11.641v8.631h32v64a64 64 0 0 1 -64 64z" fill="#fdc9a6"/><path d="m184 160h8a0 0 0 0 1 0 0v48a0 0 0 0 1 0 0h-8a24 24 0 0 1 -24-24 24 24 0 0 1 24-24z" fill="#fdc9a6"/><path d="m344 160h8a0 0 0 0 1 0 0v48a0 0 0 0 1 0 0h-8a24 24 0 0 1 -24-24 24 24 0 0 1 24-24z" fill="#fdc9a6" transform="matrix(-1 0 0 -1 672 368)"/><g fill="#422608"><circle cx="226" cy="178" r="10"/><circle cx="286" cy="178" r="10"/><path d="m264 210h-16a8 8 0 0 1 -7.589-10.53l8-24a8 8 0 1 1 15.178 5.06l-4.489 13.47h4.9a8 8 0 0 1 0 16z"/><path d="m256 239.976a43.812 43.812 0 0 1 -19.578-4.6 8 8 0 0 1 7.156-14.311 27.91 27.91 0 0 0 24.844 0 8 8 0 0 1 7.156 14.311 43.812 43.812 0 0 1 -19.578 4.6z"/></g><path d="m404.517 352.793-108.517-32.793c-17.434 31.382-62.566 31.382-80 0l-108.517 32.793a58.545 58.545 0 0 0 -35.483 53.812v33.395h56v48h256v-48h56v-33.395a58.545 58.545 0 0 0 -35.483-53.812z" fill="#0a71cd"/><path d="m72 440h64v48h-64z" fill="#fdc9a6"/><path d="m128 488v-80a8 8 0 0 1 16 0v80z" fill="#005dbb"/><path d="m376 440h64v48h-64z" fill="#fdc9a6" transform="matrix(-1 0 0 -1 816 928)"/><path d="m368 488v-80a8 8 0 0 1 16 0v80z" fill="#005dbb"/><path d="m288 488v-32l-16-16v-32l24-16v25.578a12 12 0 0 0 5.344 9.984 12 12 0 0 0 13.312 0 12 12 0 0 0 5.344-9.984v-25.578l24 16v32l-16 16v32z" fill="#005dbb"/><path d="m338 404v34.133l-14.617 15.491v34.376h4.617v-32l16-16v-32z" fill="#b9b9b9"/><circle cx="226" cy="178" r="10"/><circle cx="286" cy="178" r="10"/><path d="m248 210h16a8 8 0 0 0 0-16h-4.9l4.489-13.47a8 8 0 1 0 -15.178-5.06l-8 24a8 8 0 0 0 7.589 10.53z"/><path d="m232.845 224.645a8 8 0 0 0 3.577 10.733 43.98 43.98 0 0 0 39.156 0 8 8 0 0 0 -7.156-14.311 27.91 27.91 0 0 1 -24.844 0 8 8 0 0 0 -10.733 3.578z"/><path d="m407.668 345.439a8.042 8.042 0 0 0 -.837-.3l-102.831-31.079v-44.452a71.831 71.831 0 0 0 24-53.608 31.975 31.975 0 0 0 24-53.132v-42.819a69.542 69.542 0 0 0 -91.531-65.972l-4.469 1.49-4.469-1.49a69.542 69.542 0 0 0 -91.531 65.972v42.819a31.975 31.975 0 0 0 24 53.132 71.831 71.831 0 0 0 24 53.608v44.452l-102.831 31.075a8.042 8.042 0 0 0 -.837.3 66.472 66.472 0 0 0 -40.332 61.165v81.4a8 8 0 0 0 8 8h368a8 8 0 0 0 8-8v-81.4a66.472 66.472 0 0 0 -40.332-61.161zm-79.668-145.439v-32a16 16 0 0 1 0 32zm-111.445-131.893a53.445 53.445 0 0 1 29.916 1.15l7 2.333a8.006 8.006 0 0 0 5.06 0l7-2.333a53.538 53.538 0 0 1 70.469 50.792v32.964a31.94 31.94 0 0 0 -8-1.013 8 8 0 0 0 -8-8h-24v-.631a20 20 0 0 0 -24.851-19.4l-14.178 3.544a4.009 4.009 0 0 1 -1.941 0l-14.179-3.545a20 20 0 0 0 -24.851 19.401v.631h-24a8 8 0 0 0 -8 8 31.94 31.94 0 0 0 -8 1.013v-32.964a53.464 53.464 0 0 1 40.555-51.942zm-48.555 115.893a16.019 16.019 0 0 1 16-16v32a16.019 16.019 0 0 1 -16-16zm32 32v-56h24a8 8 0 0 0 8-8v-8.631a4 4 0 0 1 4.97-3.881l14.18 3.546a20.052 20.052 0 0 0 9.7 0l14.179-3.545a4 4 0 0 1 4.97 3.881v8.63a8 8 0 0 0 8 8h24v56a56 56 0 0 1 -112 0zm56 72a71.537 71.537 0 0 0 32-7.528v37.328a37.731 37.731 0 0 1 -64 0v-37.328a71.537 71.537 0 0 0 32 7.528zm-145.76 72.317 102.272-30.906a53.8 53.8 0 0 0 86.976 0l102.272 30.906a50.487 50.487 0 0 1 30.24 46.283v25.4h-48v-24a8 8 0 0 0 -16 0v72h-32v-20.687l13.657-13.656a8 8 0 0 0 2.343-5.657v-32a8 8 0 0 0 -3.563-6.656l-24-16a8 8 0 0 0 -12.437 6.656v25.578a4 4 0 0 1 -8 0v-25.578a8 8 0 0 0 -12.438-6.656l-24 16a8 8 0 0 0 -3.562 6.656v32a8 8 0 0 0 2.343 5.657l13.657 13.656v20.687h-136v-72a8 8 0 0 0 -16 0v24h-48v-25.4a50.487 50.487 0 0 1 30.24-46.283zm-30.24 87.683h48v32h-48zm216 32v-24a8 8 0 0 0 -2.343-5.657l-13.657-13.656v-24.406l8-5.333v10.63a20 20 0 0 0 40 0v-10.63l8 5.333v24.406l-13.657 13.656a8 8 0 0 0 -2.343 5.657v24zm136 0h-48v-32h48z"/></g></svg>